<svg xmlns="http://www.w3.org/2000/svg" viewBox="0 0 100 100" width="100" height="100">
  <!-- 外輪円 -->
  <circle cx="50" cy="50" r="44" fill="#ffffff" stroke="#6c5ce7" stroke-width="5"/>
  <circle cx="50" cy="50" r="40" fill="none" stroke="#a29bfe" stroke-width="1.5" stroke-dasharray="3 3"/>

  <!-- 猫耳 -->
  <path d="M 22 36 L 28 12 L 44 26 Z" fill="#ffffff" stroke="#6c5ce7" stroke-width="4" stroke-linejoin="round"/>
  <path d="M 26 33 L 30 18 L 41 27 Z" fill="#ff7675"/>
  
  <path d="M 78 36 L 72 12 L 56 26 Z" fill="#ffffff" stroke="#6c5ce7" stroke-width="4" stroke-linejoin="round"/>
  <path d="M 74 33 L 70 18 L 59 27 Z" fill="#ff7675"/>

  <!-- 目 (キラキラ目) -->
  <circle cx="36" cy="46" r="6.5" fill="#2d3436"/>
  <circle cx="34" cy="44" r="2.5" fill="#ffffff"/>
  <circle cx="38" cy="48" r="1.3" fill="#ffffff"/>

  <circle cx="64" cy="46" r="6.5" fill="#2d3436"/>
  <circle cx="62" cy="44" r="2.5" fill="#ffffff"/>
  <circle cx="66" cy="48" r="1.3" fill="#ffffff"/>

  <!-- 鼻と口 -->
  <polygon points="50,54 47,51 53,51" fill="#ff7675"/>
  <path d="M 43 57 Q 50 64 57 57" fill="none" stroke="#2d3436" stroke-width="3" stroke-linecap="round"/>

  <!-- ほっぺ -->
  <ellipse cx="27" cy="52" rx="4.5" ry="3" fill="#ff7675" opacity="0.6"/>
  <ellipse cx="73" cy="52" rx="4.5" ry="3" fill="#ff7675" opacity="0.6"/>

  <!-- ヒゲ -->
  <line x1="10" y1="46" x2="21" y2="48" stroke="#2d3436" stroke-width="2.5" stroke-linecap="round"/>
  <line x1="12" y1="54" x2="22" y2="53" stroke="#2d3436" stroke-width="2.5" stroke-linecap="round"/>
  <line x1="90" y1="46" x2="79" y2="48" stroke="#2d3436" stroke-width="2.5" stroke-linecap="round"/>
  <line x1="88" y1="54" x2="78" y2="53" stroke="#2d3436" stroke-width="2.5" stroke-linecap="round"/>

  <!-- 下部星＆リボン飾り -->
  <path d="M 28 73 Q 50 82 72 73 L 69 84 Q 50 92 31 84 Z" fill="#6c5ce7"/>
  <circle cx="50" cy="81" r="3.5" fill="#fdcb6e"/>
</svg>
